<svg xmlns="http://www.w3.org/2000/svg" width="338.523" height="92.113" viewBox="0 0 338.523 92.113">
  <defs>
    <style>
      .cls-1 {
        fill: #00286d;
      }

      .cls-2 {
        fill: #101010;
      }

      .cls-3 {
        fill: #616160;
      }

      .cls-4 {
        fill: #00236c;
      }
    </style>
  </defs>
  <g id="Groupe_355" data-name="Groupe 355" transform="translate(-78.637 -320.038)">
    <path id="Tracé_289" data-name="Tracé 289" class="cls-1" d="M375.154,417.478c-2.634,5.561-5.8,7.658-9.756,7.658-3.9,0-9.119-3.171-9.119-10.876,0-8,5.658-12.048,10.925-12.048a10.909,10.909,0,0,1,5.171,1.511,4.684,4.684,0,0,1,2.1,3.414,2.156,2.156,0,0,1-2.245,2.147c-1.267.1-2.1-1.17-2.389-2.243l-.293-1.073c-.39-1.464-.634-2.341-3.22-2.341-1.805,0-6.292,1.511-6.292,8.681,0,5.61,3.365,9.317,7.463,9.317,3.511,0,5.316-2.1,6.976-4.585Z" transform="translate(-141.956 -42.015)"/>
    <path id="Tracé_290" data-name="Tracé 290" class="cls-1" d="M402.055,408.357c0-2.878-.927-2.927-1.707-2.927a7.389,7.389,0,0,0-1.658.2v-.78c2.389-.78,4.829-1.658,7.218-2.635l.245.1v4.341h.1c2.293-3.463,3.952-4.439,5.8-4.439a2.436,2.436,0,0,1,2.635,2.635,1.907,1.907,0,0,1-1.855,2.147c-1.707,0-2.194-1.707-3.365-1.707s-3.316,2.438-3.316,4v10.973c0,3.365,1.658,3.562,4.145,3.658v.733H398.592v-.733c2.684-.487,3.463-.634,3.463-3.365Z" transform="translate(-163.591 -42.014)"/>
    <path id="Tracé_291" data-name="Tracé 291" class="cls-1" d="M447.383,409.577c-.342-2.341-.829-5.609-4.683-5.609-2.683,0-4.585,1.317-5.365,5.609Zm5.9,7.414c-.488,1.513-3.316,8.145-10.341,8.145-5.414,0-9.121-4-9.121-10.925,0-9.023,6.049-12,9.952-12,4.583,0,8.047,2.536,8.583,8.925H437.187c.585,8.634,4.538,10.634,7.756,10.634,4.341,0,6.439-3.316,7.561-5.122Z" transform="translate(-181.604 -42.015)"/>
    <path id="Tracé_292" data-name="Tracé 292" class="cls-1" d="M491.695,409.577c-.342-2.341-.829-5.609-4.683-5.609-2.682,0-4.585,1.317-5.365,5.609Zm5.9,7.414c-.488,1.513-3.316,8.145-10.341,8.145-5.414,0-9.121-4-9.121-10.925,0-9.023,6.049-12,9.952-12,4.583,0,8.047,2.536,8.583,8.925H481.5c.585,8.634,4.534,10.634,7.754,10.634,4.341,0,6.439-3.316,7.561-5.122Z" transform="translate(-204.26 -42.015)"/>
    <path id="Tracé_293" data-name="Tracé 293" class="cls-1" d="M524.671,408.163c0-3.073-.927-3.122-1.707-3.122a3.962,3.962,0,0,0-1.414.195v-.829c2.194-.633,4.487-1.365,6.73-2.194l.342.1v3.852c2.39-2.244,4.243-3.951,7.121-3.951,2.244,0,5.707,1.316,5.707,7.316V420.7c0,2.293.585,3.023,2.975,3.22v.731H534.28v-.731c1.8-.147,3.074-.391,3.074-4.1V409.626c0-2.976-.878-4.732-3.756-4.732-1.463,0-2.976.976-4.83,2.782v13.7c0,1.611.684,2.391,3.22,2.538v.731h-10.34v-.731c2.291-.147,3.024-.782,3.024-3.658Z" transform="translate(-226.458 -42.015)"/>
    <path id="Tracé_294" data-name="Tracé 294" class="cls-2" d="M165.172,410.054c-.342-2.341-.829-5.609-4.683-5.609-2.682,0-4.585,1.317-5.365,5.609Zm5.9,7.414c-.487,1.513-3.316,8.145-10.341,8.145-5.414,0-9.121-4-9.121-10.925,0-9.023,6.048-12,9.952-12,4.583,0,8.047,2.536,8.583,8.925H154.979c.585,8.634,4.536,10.633,7.754,10.633,4.342,0,6.439-3.316,7.561-5.121Z" transform="translate(-37.312 -42.259)"/>
    <path id="Tracé_295" data-name="Tracé 295" class="cls-2" d="M198.149,408.639c0-3.072-.927-3.122-1.707-3.122a3.956,3.956,0,0,0-1.414.195v-.829c2.194-.633,4.487-1.365,6.73-2.194l.342.1v3.852c2.39-2.244,4.243-3.951,7.121-3.951,2.244,0,5.707,1.316,5.707,7.316v11.17c0,2.293.585,3.023,2.975,3.22v.731H207.758v-.731c1.8-.147,3.073-.391,3.073-4.1V410.1c0-2.976-.877-4.732-3.755-4.732-1.463,0-2.976.976-4.83,2.782v13.7c0,1.611.684,2.391,3.22,2.538v.731H195.124v-.731c2.293-.147,3.025-.782,3.025-3.658Z" transform="translate(-59.51 -42.259)"/>
    <path id="Tracé_296" data-name="Tracé 296" class="cls-2" d="M263.347,415.42c0-6.049-2.487-11.365-6.974-11.365-3.072,0-5.756,2.536-5.756,7.609,0,3.609,1.122,12.584,6.976,12.584,2.487,0,5.754-1.853,5.754-8.828m4.391-1.415c0,4.829-3.414,11.608-10.828,11.608-6.292,0-10.681-5.023-10.681-11.608,0-6,4-11.315,10.536-11.315,6.388,0,10.973,4.243,10.973,11.315" transform="translate(-85.689 -42.259)"/>
    <path id="Tracé_297" data-name="Tracé 297" class="cls-2" d="M107.487,384.549h-1.153a1.885,1.885,0,0,1-1.73,1.514s-2.307-.361-3.389-.649c0,0-5.477-1.441-9.657-.5a15.055,15.055,0,0,0-12.615,12.254s-1.658,7.423,2.739,12.613c0,0,4.47,6.416,14.7,6.2,0,0,7.5-.073,11.893-3.172v-6.558s-.071-2.595,3.46-2.595v-1.009h-12.4v1.009s4.109-.144,4.18,2.378v5.982s-.793,1.731-6.919,2.091c0,0-6.126.216-9.732-4.686a16.853,16.853,0,0,1-2.522-9.442s-.649-13.046,11.533-13.622c0,0,7.425-.792,10.739,7.857h1.226Z" transform="translate(0 -32.984)"/>
    <path id="Tracé_298" data-name="Tracé 298" class="cls-3" d="M318.377,379.509H306.508c.04-.193.069-.388.115-.579.111-.465.233-.927.363-1.391h11.04a.634.634,0,0,0,0-1.267H307.363q.323-1.025.7-2.042h8.558a.633.633,0,0,0,0-1.266h-8.069a88.62,88.62,0,0,1,5.943-11.678c3.841-6.557,6.6-13.689,6.166-21.427-.381-6.856-3.833-13.989-7.749-19.541-.467-.662-1.566-.029-1.095.641,4.227,5.992,7.658,13.5,7.619,20.919a26.925,26.925,0,0,1-.372,4.18H307.549a.657.657,0,0,0,0,1.313h11.276c-.12.607-.258,1.21-.4,1.808H305.568a.631.631,0,0,0,0,1.261H318.1l-.071.269c-.162.59-.348,1.16-.547,1.723H306.267a.617.617,0,0,0,0,1.233h10.748c-.295.718-.622,1.414-.962,2.106h-6.581a.586.586,0,0,0,0,1.171h5.985c-.854,1.619-1.786,3.2-2.707,4.841-3.361,5.985-7.164,12.833-7.857,19.767-.7,7.049,2.15,14.57,6.492,19.978.513.637,1.4-.264.9-.9a28,28,0,0,1-6.186-16.69h10.611a.635.635,0,0,0,0-1.267H306.117q.043-.954.172-1.9h12.088a.634.634,0,0,0,0-1.267" transform="translate(-115.628 0)"/>
    <path id="Tracé_299" data-name="Tracé 299" class="cls-1" d="M288.721,376.915c.179,2.174,1.361,8.968,13.1,12.95,18.955,6.428,10.56,16.35,5.791,18.639-1.986.954-3.53.859-3.577,1.763-.134,2.532,12.422-.108,15.136-8.941,1.606-5.224,1.7-13.905-13.277-18.389-5.323-1.595-14.81-6.694-10.781-13.262,1.731-2.819,4.772-3.721,6.775-4.294,1.406-.4,1.264-.964,1.088-1.528-.571-1.843-15.3.289-14.257,13.062" transform="translate(-107.387 -22.108)"/>
    <path id="Tracé_300" data-name="Tracé 300" class="cls-4" d="M582.608,489.4a4.61,4.61,0,0,1-1.525-1.694,5.712,5.712,0,0,1-.6-2.169,8.579,8.579,0,0,1,.288-2.867,15.873,15.873,0,0,1,1.126-3.008,20.141,20.141,0,0,1,1.715-2.864,17.673,17.673,0,0,1,2.073-2.425,11.68,11.68,0,0,1,2.182-1.693,4.486,4.486,0,0,1,2.027-.683,1.818,1.818,0,0,1,1.063.084,3.223,3.223,0,0,1,.986.583,3.575,3.575,0,0,1,.734.867,2.181,2.181,0,0,1,.331.938,1.384,1.384,0,0,1-.152.791,1.363,1.363,0,0,1-.679.562l.037-.04a.682.682,0,0,1-.279.069.744.744,0,0,1-.305-.038.782.782,0,0,1-.247-.134.3.3,0,0,1-.114-.206l-.146-1.818-.193.04c-.065.014-.122.023-.174.03a.353.353,0,0,0-.114.03,8.491,8.491,0,0,0-3.613,1.875,10.342,10.342,0,0,0-2.377,3.159,31.989,31.989,0,0,0-1.94,4.673,8.326,8.326,0,0,0-.467,2.829,1.341,1.341,0,0,0,.38.948,1.222,1.222,0,0,0,.832.28,4.584,4.584,0,0,0,1.585-.35,13.215,13.215,0,0,0,1.846-.889,20.04,20.04,0,0,0,1.858-1.211,19.1,19.1,0,0,0,1.642-1.338,11.179,11.179,0,0,0,1.19-1.247,2.21,2.21,0,0,0,.512-.932,2.774,2.774,0,0,0-.588.109c-.2.06-.378.111-.544.151h.019c-.137.064-.391.161-.759.286s-.755.261-1.16.407q-.57.2-1.133.386c-.373.127-.631.215-.77.267a.927.927,0,0,1-.565.022,1.157,1.157,0,0,1-.449-.242,1.136,1.136,0,0,1-.3-.41,1.491,1.491,0,0,1-.127-.479,1.059,1.059,0,0,1,.109-.576.664.664,0,0,1,.462-.345,5.258,5.258,0,0,0,.734-.228q.579-.209,1.378-.5.816-.3,1.767-.634t1.884-.634q.935-.3,1.759-.487a6.522,6.522,0,0,1,1.394-.192,1.4,1.4,0,0,1,1.062.318q.3.32-.013,1.066l-.791.864q-.358.391-.789.873t-.843.943c-.275.308-.523.582-.745.824s-.386.417-.5.522l0-.021c-.049.054-.206.2-.472.453l-.9.835q-.5.46-1.011.914c-.342.3-.617.53-.824.688q-.366.335-.959.855a14.794,14.794,0,0,1-1.315,1.023,9.371,9.371,0,0,1-1.516.858,3.8,3.8,0,0,1-1.555.359,2.6,2.6,0,0,1-.731-.095,2.478,2.478,0,0,1-.691-.329" transform="translate(-256.576 -77.672)"/>
    <path id="Tracé_301" data-name="Tracé 301" class="cls-4" d="M618.15,483.765c.014.027-.047.1-.187.226s-.324.282-.549.472-.473.394-.743.611-.532.422-.79.62-.489.366-.693.511-.343.236-.417.275a2.007,2.007,0,0,0,.7-.1,6.449,6.449,0,0,0,.834-.317,6.871,6.871,0,0,0,.853-.463,7.042,7.042,0,0,0,.748-.541,3.05,3.05,0,0,0,.524-.541.733.733,0,0,0,.177-.479c0-.025-.078-.058-.223-.1Zm-4.562,8.921a2.584,2.584,0,0,1-1.506-1.1,3.782,3.782,0,0,1-.513-1.631,6.281,6.281,0,0,1,0-.968,5.723,5.723,0,0,1,.157-.968c.131-.144.269-.305.411-.481s.278-.35.408-.52q.6-.727,1.34-1.56c.491-.557,1-1.1,1.542-1.622a16.118,16.118,0,0,1,1.684-1.435,8.567,8.567,0,0,1,1.764-1.025.994.994,0,0,1,.669-.073.926.926,0,0,1,.487.351,1.939,1.939,0,0,1,.307.653,4.262,4.262,0,0,1,.144.821,6,6,0,0,1-.065,1.478q-.062.342-.137.606a1.18,1.18,0,0,1-.184.4,3.821,3.821,0,0,1-.994.779q-.707.422-1.57.9c-.462.249-.936.516-1.422.8s-.922.562-1.312.837a6.335,6.335,0,0,0-.951.807.98.98,0,0,0-.345.706c.014.169.164.338.453.506a1.187,1.187,0,0,0,.215.019c.079,0,.15,0,.215,0a9,9,0,0,0,1.321-.112q.715-.111,1.464-.291c.5-.119.995-.252,1.493-.4l1.413-.418c.318-.091.653-.182,1-.267s.636-.163.851-.229l.75.563a4.033,4.033,0,0,1-1.312,1.2,11.053,11.053,0,0,1-1.986.959,15.575,15.575,0,0,1-2.247.646,10.634,10.634,0,0,1-2.092.244,7.11,7.11,0,0,1-.775-.037,3.611,3.611,0,0,1-.685-.133" transform="translate(-272.475 -82.438)"/>
    <path id="Tracé_302" data-name="Tracé 302" class="cls-4" d="M642.225,493.442a4.194,4.194,0,0,1-.054-1.144,7.38,7.38,0,0,1,.195-1.116,8.041,8.041,0,0,1,.361-1.1c.147-.359.3-.715.453-1.068q.377-.883.664-1.706a3.893,3.893,0,0,0,.222-1.6,2.687,2.687,0,0,0-.1-.548,2.038,2.038,0,0,0-1.264.328,9.63,9.63,0,0,0-1.5,1.084q-.786.679-1.6,1.522t-1.566,1.67q-.773.845-1.478,1.562a10.365,10.365,0,0,1-1.277,1.129,1.691,1.691,0,0,1-1.006.4c-.288-.013-.506-.226-.657-.644q0-.019.252-.627t.652-1.5q.4-.89.87-1.949t.9-1.971q.424-.911.756-1.538a2.831,2.831,0,0,1,.424-.687,2.547,2.547,0,0,1,.706.642,1.315,1.315,0,0,1,.237.625,1.735,1.735,0,0,1-.044.547c-.045.184-.092.359-.144.529-.019.079-.04.156-.058.236s-.04.156-.061.234q.594-.413,1.408-.973c.544-.375,1.1-.729,1.685-1.065a14.519,14.519,0,0,1,1.7-.848,3.98,3.98,0,0,1,1.477-.349,1.378,1.378,0,0,1,1.508,1.481,4.6,4.6,0,0,1-.092,1.174,12.214,12.214,0,0,1-.46,1.683l.016-.038c-.022.052-.059.153-.112.3s-.114.327-.182.53-.149.424-.24.666-.179.479-.264.715q-.223.627-.44,1.215c-.144.391-.232.639-.262.744a.254.254,0,0,0-.009.117.336.336,0,0,0-.01.129.664.664,0,0,1-.008.147,5.9,5.9,0,0,1-.082.811,1.353,1.353,0,0,1-.323.716.412.412,0,0,1-.33.149.755.755,0,0,1-.351-.106,2.181,2.181,0,0,1-.3-.214.864.864,0,0,1-.158-.156Z" transform="translate(-283.759 -83.584)"/>
    <path id="Tracé_303" data-name="Tracé 303" class="cls-4" d="M662.187,492.634a.7.7,0,0,0,.707.546,2.316,2.316,0,0,0,1.039-.3,7.076,7.076,0,0,0,1.169-.777,10.9,10.9,0,0,0,1.152-1.092,9.394,9.394,0,0,0,.971-1.256,7.107,7.107,0,0,0,.66-1.274,2.564,2.564,0,0,0,.2-1.117.8.8,0,0,0-.349-.6,1.841,1.841,0,0,0-1.065-.231,5.6,5.6,0,0,0-.757.063,2.635,2.635,0,0,1-.19.187c-.066.059-.143.128-.228.206q-.489.453-1.1,1.061a13.774,13.774,0,0,0-1.147,1.286,7.383,7.383,0,0,0-.873,1.4,2.723,2.723,0,0,0-.288,1.39,1.886,1.886,0,0,0,.1.508m-.1,1.723a2.6,2.6,0,0,1-1.255-.924,2.694,2.694,0,0,1-.47-1.337,4.19,4.19,0,0,1,.166-1.469,8.2,8.2,0,0,1,.625-1.568,11.767,11.767,0,0,1,.941-1.52,12.8,12.8,0,0,1,1.095-1.316,6.99,6.99,0,0,1,1.116-.952,2.44,2.44,0,0,1,.981-.435c.141-.014.286-.023.437-.031s.294-.011.438-.011a4.2,4.2,0,0,1,1.423.209,2.841,2.841,0,0,1,1,.582,2.523,2.523,0,0,1,.617.876,3.539,3.539,0,0,1,.266,1.114,5.053,5.053,0,0,1-.122,1.517,7.239,7.239,0,0,1-.566,1.578,9.108,9.108,0,0,1-.933,1.5,7.642,7.642,0,0,1-1.216,1.267,5.807,5.807,0,0,1-1.452.878,4.185,4.185,0,0,1-1.6.329,4.051,4.051,0,0,1-1.487-.286" transform="translate(-297.428 -84.238)"/>
    <path id="Tracé_304" data-name="Tracé 304" class="cls-4" d="M695.711,493.582a.5.5,0,0,1-.436.041,1.832,1.832,0,0,1-.487-.233,2.967,2.967,0,0,1-.418-.321,1.406,1.406,0,0,1-.2-.2l.074.195a1.484,1.484,0,0,1-.317-.536,2.6,2.6,0,0,1-.128-.615,3.052,3.052,0,0,1,.107-1.085,7.32,7.32,0,0,1,.334-.951c.067-.156.174-.432.326-.823s.317-.8.5-1.236.349-.839.508-1.225.275-.656.354-.813l-.008-.1a3.692,3.692,0,0,0-1.016.61q-.674.513-1.494,1.259t-1.707,1.612q-.89.864-1.648,1.641t-1.317,1.365c-.373.392-.612.655-.72.785-.468.173-.807.144-1.014-.082a1.8,1.8,0,0,1-.37-1.085,6.46,6.46,0,0,1,.019-1.095q.057-.627.171-1.272c.078-.432.158-.848.242-1.253s.161-.757.228-1.059a.649.649,0,0,0,.044-.185.265.265,0,0,1,.046-.147,1.551,1.551,0,0,0-.721.385,6.123,6.123,0,0,0-.766.816c-.261.326-.521.69-.783,1.089s-.519.8-.772,1.207-.506.794-.756,1.166-.5.7-.733.992a3.874,3.874,0,0,1-.707.687,1.179,1.179,0,0,1-.7.258,1.206,1.206,0,0,1-.945-.563.712.712,0,0,1-.052-.283.88.88,0,0,1,.025-.283c.066-.157.163-.4.294-.726s.279-.694.448-1.106.35-.84.543-1.285.376-.872.552-1.283.33-.777.468-1.1.239-.559.3-.715v.019a5.385,5.385,0,0,1,.32-.656q.221-.4.455-.764c.157-.242.3-.453.419-.628a1.263,1.263,0,0,1,.2-.264l.781,0a2.493,2.493,0,0,1,.228.761,2.125,2.125,0,0,1-.027.655,2.23,2.23,0,0,1-.2.568c-.09.177-.182.344-.272.5-.057.119-.116.233-.179.344a3.419,3.419,0,0,0-.16.324q.873-.826,1.53-1.407t1.147-.945a5.508,5.508,0,0,1,.809-.52,1.28,1.28,0,0,1,.533-.16.677.677,0,0,1,.492.155.76.76,0,0,1,.2.449,2.674,2.674,0,0,1,0,.693c-.03.269-.071.559-.125.872l.019-.021q-.088.629-.168,1.332a7.147,7.147,0,0,0-.025,1.389l.027.332c.122-.1.253-.22.392-.345s.289-.252.449-.383q.368-.294.679-.55c.209-.171.348-.288.421-.355.185-.144.426-.34.726-.59s.6-.5.918-.747l.835-.67a4.507,4.507,0,0,1,.479-.354h-.04c.062-.052.195-.153.4-.305s.424-.31.665-.481.473-.332.694-.482.385-.253.484-.305l-.018.019a1.517,1.517,0,0,1,.8-.258,1.089,1.089,0,0,1,.842.359,1.514,1.514,0,0,1,.378.927,1.545,1.545,0,0,1-.013.332c-.017.117-.033.248-.047.391-.1.223-.2.438-.3.647s-.195.419-.283.627q-.4.844-.756,1.658a15.926,15.926,0,0,0-.619,1.665,11.636,11.636,0,0,0-.4,1.772,9.7,9.7,0,0,0-.066,1.957" transform="translate(-307.698 -83.447)"/>
    <path id="Tracé_305" data-name="Tracé 305" class="cls-4" d="M720.922,479.627a1.093,1.093,0,0,1-.046-.225,2.087,2.087,0,0,1-.019-.351c0-.125.009-.242.021-.353a.808.808,0,0,1,.049-.245,3.616,3.616,0,0,1,.438-.138,1.383,1.383,0,0,1,.308-.041,1.015,1.015,0,0,1,.827.308,1.294,1.294,0,0,1,.294.742,1.393,1.393,0,0,1-.2.842.7.7,0,0,1-.624.394.875.875,0,0,1-.535-.193,1.992,1.992,0,0,1-.516-.7Zm-3.137,10.812q.493-2.133.976-3.662a23.659,23.659,0,0,1,.923-2.508,7.544,7.544,0,0,1,.792-1.442q.354-.463.589-.462c.2,0,.33.206.4.624a5.63,5.63,0,0,1-.082,1.772,20.639,20.639,0,0,1-.707,2.761,26.739,26.739,0,0,1-1.473,3.575,1.279,1.279,0,0,1-.747.064.858.858,0,0,1-.634-.469Z" transform="translate(-326.792 -80.905)"/>
    <path id="Tracé_306" data-name="Tracé 306" class="cls-4" d="M731.2,492.678a3.2,3.2,0,0,1-1.671-1.089,3.137,3.137,0,0,1-.6-1.641,5.036,5.036,0,0,1,.239-1.889,10.518,10.518,0,0,1,.865-2.008,15.578,15.578,0,0,1,1.272-1.933,13.826,13.826,0,0,1,1.481-1.65,8.159,8.159,0,0,1,1.5-1.141,2.733,2.733,0,0,1,1.305-.425,1.384,1.384,0,0,1,.9.3,1.757,1.757,0,0,1,.547.967,1.972,1.972,0,0,1-.087,1.106,4.176,4.176,0,0,1-.576,1.107,4.539,4.539,0,0,1-.8.864,1.293,1.293,0,0,1-.784.356.771.771,0,0,1-.514-.2,1.221,1.221,0,0,1-.356-.653,4.082,4.082,0,0,1,.5-.932c.182-.242.356-.487.517-.736a.984.984,0,0,0-.653.267,5.93,5.93,0,0,0-.9.854,13.831,13.831,0,0,0-1.851,2.747,8.952,8.952,0,0,0-.611,1.519,3.755,3.755,0,0,0-.174,1.361,1.706,1.706,0,0,0,.157.606,1.346,1.346,0,0,0,.4.487,5.362,5.362,0,0,0,1.455-.144q.807-.18,1.684-.467t1.747-.644q.871-.356,1.664-.693h-.019q1.1-.455,1.914-.753a1.776,1.776,0,0,1,1.182-.142.467.467,0,0,1,.2.694,3.216,3.216,0,0,1-.919.972,12.316,12.316,0,0,1-1.7,1.074,19.937,19.937,0,0,1-2.139.987,18.287,18.287,0,0,1-2.229.725,8.309,8.309,0,0,1-1.983.283,3.121,3.121,0,0,1-.968-.132" transform="translate(-332.483 -82.248)"/>
    <path id="Tracé_307" data-name="Tracé 307" class="cls-4" d="M754.348,491.391A.6.6,0,0,1,754,490.9a.889.889,0,0,1,.237-.568,3.292,3.292,0,0,1,.676-.6q.434-.306.967-.611t1.115-.591l1.111-.544h-.019q.581-.3,1-.514c.282-.144.471-.25.571-.315q.632-.648.611-.9c-.008-.117-.1-.22-.279-.312a3.28,3.28,0,0,0-.685-.24c-.278-.069-.59-.134-.933-.191s-.687-.111-1.03-.163q-.593-.073-1.158-.18a7.176,7.176,0,0,1-1.019-.26,2.4,2.4,0,0,1-.734-.378.779.779,0,0,1-.31-.576,1.056,1.056,0,0,1,.229-.666,3.562,3.562,0,0,1,.845-.805l-.019.019q.294-.235.9-.669t1.3-.9q.7-.463,1.4-.848a4.968,4.968,0,0,1,1.221-.5,1.108,1.108,0,0,1,.528.008,1.621,1.621,0,0,1,.5.212,1.674,1.674,0,0,1,.391.34.7.7,0,0,1,.177.39.78.78,0,0,1-.429.745c-.211.132-.423.257-.634.375l-.636.355-1.756,1.025q-.84.494-1.489.946a23.686,23.686,0,0,1,2.655.418,8.865,8.865,0,0,1,1.788.579,3,3,0,0,1,1.016.72,1.457,1.457,0,0,1,.359.82,1.649,1.649,0,0,1-.491,1.206,6.97,6.97,0,0,1-1.38,1.19,15.6,15.6,0,0,1-1.87,1.074q-1.026.5-1.945.85a11.839,11.839,0,0,1-1.6.5q-.684.15-.85.033Z" transform="translate(-345.307 -81.563)"/>
    <path id="Tracé_308" data-name="Tracé 308" class="cls-4" d="M358.411,487.48a1.781,1.781,0,0,1-.041-.479c.006-.195.021-.4.044-.6s.05-.385.084-.544.052-.258.064-.294q1-3.192,2.033-6.421t2.034-6.419a1.366,1.366,0,0,1,.44-.729.309.309,0,0,1,.411.09,1.723,1.723,0,0,1,.32.652,4.4,4.4,0,0,1,.163.938,3.68,3.68,0,0,1,0,.414,1.128,1.128,0,0,1-.077.359c-.093.271-.19.535-.29.794s-.194.529-.286.812q-1.044,2.879-1.989,5.847a43.246,43.246,0,0,0-1.47,6.2,1.01,1.01,0,0,1-.547.206.722.722,0,0,1-.432-.127,1,1,0,0,1-.3-.331,1.6,1.6,0,0,1-.165-.386Z" transform="translate(-143.025 -77.672)"/>
    <path id="Tracé_309" data-name="Tracé 309" class="cls-4" d="M376.281,495.8a3.93,3.93,0,0,1-.035-1.078,7.042,7.042,0,0,1,.2-1.051,7.649,7.649,0,0,1,.356-1.033c.142-.338.289-.674.438-1.006q.37-.831.649-1.606a3.684,3.684,0,0,0,.233-1.511,2.57,2.57,0,0,0-.088-.516,1.943,1.943,0,0,0-1.195.31,9.094,9.094,0,0,0-1.424,1.02q-.75.638-1.525,1.435t-1.5,1.573q-.74.8-1.413,1.472a10.029,10.029,0,0,1-1.218,1.065,1.611,1.611,0,0,1-.951.373c-.271-.011-.473-.214-.609-.606,0-.011.081-.209.245-.59s.377-.851.634-1.411.54-1.172.845-1.839.6-1.282.872-1.854.519-1.056.733-1.45a2.7,2.7,0,0,1,.408-.647,2.407,2.407,0,0,1,.657.6,1.238,1.238,0,0,1,.214.588,1.682,1.682,0,0,1-.049.516q-.066.259-.142.5c-.021.074-.04.147-.059.221s-.04.147-.06.222c.377-.261.821-.566,1.339-.919s1.051-.685,1.6-1a14.174,14.174,0,0,1,1.612-.8,3.791,3.791,0,0,1,1.4-.329,1.275,1.275,0,0,1,1.4,1.394,4.345,4.345,0,0,1-.1,1.1,11.73,11.73,0,0,1-.455,1.587l.016-.037c-.022.049-.059.144-.111.285s-.11.308-.178.5-.146.4-.235.628-.175.453-.26.674q-.218.589-.43,1.144c-.141.368-.228.6-.258.7a.247.247,0,0,0-.011.111.4.4,0,0,0-.011.119.525.525,0,0,1-.01.139,5.43,5.43,0,0,1-.087.764,1.3,1.3,0,0,1-.313.674.391.391,0,0,1-.313.139.68.68,0,0,1-.329-.1,1.952,1.952,0,0,1-.28-.2.73.73,0,0,1-.147-.147Z" transform="translate(-148.051 -85.084)"/>
    <path id="Tracé_310" data-name="Tracé 310" class="cls-4" d="M401.315,495.664a3.93,3.93,0,0,1-.035-1.078,7.033,7.033,0,0,1,.2-1.051,7.73,7.73,0,0,1,.356-1.033q.214-.507.44-1.006.368-.831.649-1.606a3.682,3.682,0,0,0,.231-1.511,2.536,2.536,0,0,0-.088-.516,1.944,1.944,0,0,0-1.194.31,9.075,9.075,0,0,0-1.424,1.02q-.75.638-1.527,1.435t-1.5,1.573q-.74.8-1.413,1.471a10,10,0,0,1-1.22,1.065,1.608,1.608,0,0,1-.951.373q-.406-.017-.611-.606c0-.011.081-.209.247-.59s.377-.851.634-1.411.54-1.172.845-1.837.6-1.283.872-1.856.519-1.055.733-1.449a2.866,2.866,0,0,1,.408-.647,2.394,2.394,0,0,1,.658.6,1.218,1.218,0,0,1,.212.588,1.637,1.637,0,0,1-.048.516q-.066.259-.142.5c-.021.074-.04.147-.059.221s-.04.147-.06.222q.565-.389,1.339-.919t1.6-1a13.936,13.936,0,0,1,1.614-.8,3.778,3.778,0,0,1,1.4-.329,1.276,1.276,0,0,1,1.4,1.394,4.363,4.363,0,0,1-.1,1.106,11.632,11.632,0,0,1-.457,1.585l.018-.037c-.022.049-.059.144-.111.285s-.112.308-.179.5-.146.4-.236.628-.176.453-.26.674c-.146.394-.288.774-.431,1.144s-.226.6-.256.7a.236.236,0,0,0-.013.111.358.358,0,0,0-.01.118.6.6,0,0,1-.009.139,5.529,5.529,0,0,1-.088.764,1.285,1.285,0,0,1-.313.674.39.39,0,0,1-.313.139.687.687,0,0,1-.329-.1,1.875,1.875,0,0,1-.28-.2.73.73,0,0,1-.147-.147Z" transform="translate(-160.849 -85.016)"/>
    <path id="Tracé_311" data-name="Tracé 311" class="cls-4" d="M420.992,493.853a.647.647,0,0,0,.66.513,2.217,2.217,0,0,0,.986-.282,6.691,6.691,0,0,0,1.111-.732,9.932,9.932,0,0,0,1.1-1.029,8.873,8.873,0,0,0,.935-1.183,6.77,6.77,0,0,0,.639-1.2,2.42,2.42,0,0,0,.206-1.051.73.73,0,0,0-.323-.569,1.717,1.717,0,0,0-1-.217,5.384,5.384,0,0,0-.715.059c-.057.062-.117.12-.18.177s-.138.119-.218.193q-.468.427-1.057,1a13.264,13.264,0,0,0-1.1,1.212,7.056,7.056,0,0,0-.844,1.322,2.6,2.6,0,0,0-.291,1.308,1.837,1.837,0,0,0,.087.479m-.114,1.621a2.4,2.4,0,0,1-1.17-.87,2.5,2.5,0,0,1-.424-1.259,3.96,3.96,0,0,1,.175-1.382,7.994,7.994,0,0,1,.611-1.476,11.142,11.142,0,0,1,.909-1.433,12.027,12.027,0,0,1,1.051-1.239,6.742,6.742,0,0,1,1.063-.9,2.365,2.365,0,0,1,.93-.41c.134-.013.272-.022.413-.03s.279-.009.413-.011a4,4,0,0,1,1.339.2,2.662,2.662,0,0,1,.94.549,2.332,2.332,0,0,1,.569.826,3.3,3.3,0,0,1,.235,1.049,4.742,4.742,0,0,1-.135,1.427A6.9,6.9,0,0,1,427.24,492a8.823,8.823,0,0,1-.9,1.413,7.4,7.4,0,0,1-1.165,1.194,5.5,5.5,0,0,1-1.381.826,3.959,3.959,0,0,1-1.518.311,3.778,3.778,0,0,1-1.4-.269" transform="translate(-174.167 -85.093)"/>
    <path id="Tracé_312" data-name="Tracé 312" class="cls-4" d="M441.532,494.173a1.958,1.958,0,0,1-.878-1.037,5.127,5.127,0,0,1-.323-1.536,9.17,9.17,0,0,1,0-1.2c.029-.418.065-.826.112-1.225s.1-.78.165-1.144.114-.679.158-.948l-.018.018c.016-.122.038-.258.065-.405s.05-.258.071-.332a.6.6,0,0,1,.492-.076,1.6,1.6,0,0,1,.456.218,4.186,4.186,0,0,1,.471.44c.021.136.037.283.048.441s.019.3.027.424c.027.392.036.767.028,1.123s-.011.712-.011,1.068q-.038.553-.047,1.116c0,.375,0,.745.028,1.114l.035.535c.088.037.286-.079.595-.345s.674-.62,1.1-1.063.883-.945,1.375-1.5.97-1.1,1.438-1.647q.6-.683,1.189-1.341t1.111-1.176a9.636,9.636,0,0,1,.93-.832,1.233,1.233,0,0,1,.652-.316.471.471,0,0,1,.5.329,2.12,2.12,0,0,1-.093,1.106,8.26,8.26,0,0,0-.993,1.119q-.524.693-1.114,1.525-.693.961-1.471,2a20.532,20.532,0,0,1-1.606,1.9,10.025,10.025,0,0,1-1.664,1.418,3.04,3.04,0,0,1-1.666.56,2.164,2.164,0,0,1-1.163-.326" transform="translate(-184.922 -84.114)"/>
    <path id="Tracé_313" data-name="Tracé 313" class="cls-4" d="M461.348,493.489a.485.485,0,0,0,.486.324,2.5,2.5,0,0,0,1.081-.315,6.884,6.884,0,0,0,1.267-.851,10.773,10.773,0,0,0,2.375-2.837,7.908,7.908,0,0,0,.739-1.743,5.085,5.085,0,0,0,.19-1.794c-.008-.1-.014-.2-.021-.272a1.48,1.48,0,0,0-.06-.286.658.658,0,0,0-.28-.062,2.3,2.3,0,0,0-1.184.409,7.892,7.892,0,0,0-1.316,1.061,13.735,13.735,0,0,0-1.293,1.481,14.691,14.691,0,0,0-1.095,1.66,10.247,10.247,0,0,0-.74,1.6,3.239,3.239,0,0,0-.23,1.3.771.771,0,0,0,.081.326m6.058-1.174c-.04-.041-.06-.069-.062-.086a.294.294,0,0,1,0-.03.181.181,0,0,0-.013-.032.26.26,0,0,0-.089-.069,1.785,1.785,0,0,0-.342.327q-.413.375-.911.82a10.2,10.2,0,0,1-1.068.827,6.705,6.705,0,0,1-1.2.641,3.4,3.4,0,0,1-1.3.262,3.141,3.141,0,0,1-1.794-.583,1.685,1.685,0,0,1-.585-.657,2.4,2.4,0,0,1-.236-.892,4.521,4.521,0,0,1,.2-1.585,9.557,9.557,0,0,1,.733-1.805,12.127,12.127,0,0,1,1.158-1.791,11.115,11.115,0,0,1,1.452-1.551,7.44,7.44,0,0,1,1.626-1.095,3.851,3.851,0,0,1,1.68-.418,3.169,3.169,0,0,1,1.189.228,3.332,3.332,0,0,1,1.1.74,2.342,2.342,0,0,1,.544.728,2.263,2.263,0,0,1,.2.761,2.742,2.742,0,0,1-.122,1.033c-.108.346-.228.7-.359,1.049-.152.405-.286.82-.4,1.245a2.584,2.584,0,0,0-.03,1.258.769.769,0,0,0,.619.619c-.024.011-.019.019.011.023a.714.714,0,0,0,.11.008c.044,0,.107-.006.193-.018a4.793,4.793,0,0,0,1.271-.229q.773-.23,1.614-.566t1.609-.722q.771-.382,1.282-.68.985-.128,1.221.073c.156.133.139.327-.055.583a4.274,4.274,0,0,1-1.011.859,12.854,12.854,0,0,1-1.649.915,14.706,14.706,0,0,1-1.967.755,8.456,8.456,0,0,1-1.969.366,3.78,3.78,0,0,1-1.648-.242,1.732,1.732,0,0,1-1-1.068" transform="translate(-194.884 -84.139)"/>
    <path id="Tracé_314" data-name="Tracé 314" class="cls-4" d="M489.323,488.517a1.191,1.191,0,0,1-.074-.422.663.663,0,0,1,.058-.37c.019-.073.033-.134.043-.183.059-.234.13-.547.215-.94s.168-.786.253-1.18.165-.759.24-1.1.133-.581.173-.728a.059.059,0,0,0,0-.055.066.066,0,0,1,.006-.056,1.966,1.966,0,0,1,.093-.405,1.084,1.084,0,0,0,.055-.424,5.238,5.238,0,0,0-.656.112q-.289.075-.589.133a3.555,3.555,0,0,1-.633.058,1.527,1.527,0,0,1-.767-.19,1.565,1.565,0,0,1-.6-.688,1.616,1.616,0,0,1,.38-.646,1.759,1.759,0,0,1,.538-.372,2.656,2.656,0,0,1,.622-.187c.22-.038.444-.069.675-.095a8.33,8.33,0,0,0,.955-.163,1.057,1.057,0,0,0,.663-.416c.06-.2.127-.419.2-.665s.138-.509.206-.793q.145-.572.332-1.226t.392-1.31q.207-.655.44-1.293a10.114,10.114,0,0,1,.511-1.171.559.559,0,0,1,.639-.1,1.278,1.278,0,0,1,.446.487,2.308,2.308,0,0,1,.249.68,2.2,2.2,0,0,1,.058.468h.018a4.453,4.453,0,0,1-.247.85l-.372.94c-.168.432-.323.867-.465,1.31a3.384,3.384,0,0,0-.175,1.255c.006.1,0,.141-.009.129s0,.023.025.11l4.345-.022a.439.439,0,0,1,.355.2c.1.134.185.252.253.349a.624.624,0,0,1,.074.579.708.708,0,0,1-.438.315,3.318,3.318,0,0,1-.8.133c-.318.021-.662.038-1.029.052s-.724.03-1.11.051a7.817,7.817,0,0,0-1.068.125,3.287,3.287,0,0,0-.848.272.864.864,0,0,0-.465.471q-.474,1.457-.857,2.915t-.709,2.931a1.862,1.862,0,0,1-.262.351,1.474,1.474,0,0,1-.438.344.684.684,0,0,1-.492.057c-.169-.041-.3-.21-.411-.5Z" transform="translate(-208.869 -78.508)"/>
    <path id="Tracé_315" data-name="Tracé 315" class="cls-4" d="M511,481.438a1.08,1.08,0,0,1-.059-.211,2.131,2.131,0,0,1-.04-.332c0-.117,0-.226,0-.33a.815.815,0,0,1,.03-.231,3.519,3.519,0,0,1,.4-.131,1.265,1.265,0,0,1,.289-.038,1.01,1.01,0,0,1,.8.291,1.3,1.3,0,0,1,.324.7,1.261,1.261,0,0,1-.133.793.612.612,0,0,1-.562.372.872.872,0,0,1-.514-.182,2.05,2.05,0,0,1-.53-.66Zm-2.277,10.182q.33-2.01.69-3.449a20.956,20.956,0,0,1,.712-2.362,6.553,6.553,0,0,1,.655-1.358c.2-.29.378-.435.527-.435.183,0,.323.195.417.587a5.339,5.339,0,0,1,.033,1.667,18.63,18.63,0,0,1-.492,2.6,23.757,23.757,0,0,1-1.163,3.369,1.193,1.193,0,0,1-.7.058.876.876,0,0,1-.627-.44Z" transform="translate(-219.9 -81.871)"/>
    <path id="Tracé_316" data-name="Tracé 316" class="cls-4" d="M521.306,493.731a1.955,1.955,0,0,1-.878-1.036,5.162,5.162,0,0,1-.323-1.536,9.189,9.189,0,0,1,0-1.2c.028-.418.065-.826.112-1.225s.1-.78.165-1.144.114-.679.158-.949l-.017.019c.017-.122.038-.258.067-.405s.049-.258.069-.332a.594.594,0,0,1,.492-.076,1.59,1.59,0,0,1,.456.218,4,4,0,0,1,.472.44c.021.136.037.283.047.442s.019.3.029.424c.025.392.035.767.027,1.124s-.01.712-.011,1.068q-.038.553-.046,1.115c-.006.375,0,.745.027,1.114l.035.535c.089.036.286-.079.6-.345s.674-.62,1.1-1.063.881-.945,1.373-1.5.97-1.1,1.438-1.645q.6-.684,1.191-1.342T529,485.257a9.986,9.986,0,0,1,.93-.832,1.235,1.235,0,0,1,.652-.316.47.47,0,0,1,.5.329,2.111,2.111,0,0,1-.093,1.106,8.168,8.168,0,0,0-.994,1.119q-.525.693-1.114,1.525-.693.961-1.472,2a20.824,20.824,0,0,1-1.6,1.9,10.162,10.162,0,0,1-1.666,1.417,3.028,3.028,0,0,1-1.664.56,2.168,2.168,0,0,1-1.165-.326" transform="translate(-225.71 -83.888)"/>
    <path id="Tracé_317" data-name="Tracé 317" class="cls-4" d="M547.231,484.625c.013.024-.046.095-.18.212s-.307.266-.522.445-.453.37-.709.574-.508.4-.753.584-.465.346-.658.483a4.269,4.269,0,0,1-.4.259,1.922,1.922,0,0,0,.657-.095,6.259,6.259,0,0,0,.789-.3,6.56,6.56,0,0,0,.81-.437,6.848,6.848,0,0,0,.712-.509,2.963,2.963,0,0,0,.5-.51.706.706,0,0,0,.174-.453c0-.023-.073-.055-.211-.09Zm-4.417,8.4a2.382,2.382,0,0,1-1.4-1.033,3.508,3.508,0,0,1-.46-1.536,5.885,5.885,0,0,1,.014-.911,5.266,5.266,0,0,1,.16-.913c.127-.134.258-.286.394-.452s.266-.331.391-.491q.581-.683,1.284-1.471t1.473-1.525a15.856,15.856,0,0,1,1.6-1.353,8.241,8.241,0,0,1,1.677-.967.939.939,0,0,1,.631-.066.849.849,0,0,1,.452.329,1.818,1.818,0,0,1,.282.615,4.042,4.042,0,0,1,.123.772,5.474,5.474,0,0,1,0,.711,5.546,5.546,0,0,1-.084.68,5.407,5.407,0,0,1-.138.573,1.157,1.157,0,0,1-.177.378,3.656,3.656,0,0,1-.946.733q-.674.4-1.491.845-.657.353-1.349.753t-1.247.788a6.17,6.17,0,0,0-.907.759.944.944,0,0,0-.334.666c.011.158.149.318.418.476a1.057,1.057,0,0,0,.2.017h.2a8.425,8.425,0,0,0,1.245-.106c.449-.071.909-.161,1.381-.275s.941-.238,1.411-.375l1.337-.392c.3-.089.617-.173.95-.253s.6-.153.805-.217l.7.53a3.852,3.852,0,0,1-1.251,1.129,10.718,10.718,0,0,1-1.883.9,14.772,14.772,0,0,1-2.123.609,10.1,10.1,0,0,1-1.973.231,7.171,7.171,0,0,1-.73-.033,3.363,3.363,0,0,1-.644-.127" transform="translate(-236.372 -82.952)"/>
  </g>
</svg>
