<svg id="Calque_1" data-name="Calque 1" xmlns="http://www.w3.org/2000/svg" viewBox="0 0 438.02 92.11">
  <defs>
    <style>
      .cls-1 {
        fill: #00286d;
      }

      .cls-2 {
        fill: #101010;
      }

      .cls-3 {
        fill: #616160;
      }

      .cls-4 {
        fill: #00236c;
      }
    </style>
  </defs>
  <title>genoscreen-logo-center</title>
  <g id="Groupe_355" data-name="Groupe 355">
    <path id="Tracé_289" data-name="Tracé 289" class="cls-1" d="M254.06,55.43c-2.63,5.56-5.8,7.65-9.76,7.65s-9.11-3.17-9.11-10.87c0-8,5.65-12.05,10.92-12.05a10.85,10.85,0,0,1,5.17,1.51,4.67,4.67,0,0,1,2.1,3.41,2.15,2.15,0,0,1-2.16,2.15h-.08c-1.27.1-2.1-1.17-2.39-2.24l-.3-1.08c-.39-1.46-.63-2.34-3.22-2.34-1.8,0-6.29,1.51-6.29,8.68,0,5.61,3.37,9.32,7.47,9.32,3.51,0,5.31-2.1,7-4.58Z"/>
    <path id="Tracé_290" data-name="Tracé 290" class="cls-1" d="M259.33,46.31c0-2.88-.93-2.93-1.71-2.93a7.11,7.11,0,0,0-1.66.2V42.8c2.39-.78,4.83-1.66,7.22-2.64l.24.1V44.6h.1c2.3-3.46,4-4.43,5.8-4.43A2.43,2.43,0,0,1,272,42.38a2.94,2.94,0,0,1,0,.42,1.91,1.91,0,0,1-1.65,2.13l-.21,0c-1.7,0-2.19-1.71-3.36-1.71s-3.32,2.44-3.32,4v11c0,3.37,1.66,3.57,4.15,3.66v.73H255.86v-.73c2.69-.49,3.47-.63,3.47-3.36Z"/>
    <path id="Tracé_291" data-name="Tracé 291" class="cls-1" d="M286.64,47.52c-.34-2.34-.83-5.61-4.68-5.61-2.68,0-4.59,1.32-5.37,5.61Zm5.9,7.42c-.49,1.51-3.31,8.14-10.34,8.14-5.41,0-9.12-4-9.12-10.92,0-9,6.05-12,9.95-12,4.58,0,8.05,2.53,8.58,8.92H276.45c.58,8.64,4.53,10.64,7.75,10.64,4.34,0,6.44-3.32,7.56-5.13Z"/>
    <path id="Tracé_292" data-name="Tracé 292" class="cls-1" d="M308.3,47.52c-.34-2.34-.83-5.61-4.69-5.61-2.68,0-4.58,1.32-5.36,5.61Zm5.9,7.42c-.49,1.51-3.32,8.14-10.34,8.14-5.42,0-9.12-4-9.12-10.92,0-9,6-12,9.95-12,4.58,0,8,2.53,8.58,8.92H298.1c.59,8.64,4.54,10.64,7.76,10.64,4.34,0,6.44-3.32,7.56-5.13Z"/>
    <path id="Tracé_293" data-name="Tracé 293" class="cls-1" d="M319.08,46.11c0-3.07-.93-3.12-1.71-3.12a4,4,0,0,0-1.42.19v-.83c2.2-.63,4.49-1.36,6.73-2.19l.35.1v3.85c2.39-2.24,4.24-4,7.12-4,2.24,0,5.7,1.32,5.7,7.32V58.65c0,2.29.59,3,3,3.22v.73H328.68v-.73c1.8-.15,3.08-.39,3.08-4.1V47.57c0-3-.88-4.73-3.76-4.73-1.46,0-3,1-4.83,2.78v13.7c0,1.61.69,2.39,3.22,2.54v.73H316.05v-.73c2.29-.15,3-.78,3-3.66Z"/>
    <path id="Tracé_294" data-name="Tracé 294" class="cls-2" d="M148.72,47.76c-.34-2.34-.83-5.61-4.68-5.61-2.68,0-4.59,1.31-5.37,5.61Zm5.9,7.41c-.48,1.51-3.31,8.15-10.34,8.15-5.41,0-9.12-4-9.12-10.93,0-9,6.05-12,10-12,4.59,0,8,2.54,8.59,8.93H138.53C139.11,58,143.07,60,146.28,60c4.35,0,6.44-3.32,7.56-5.12Z"/>
    <path id="Tracé_295" data-name="Tracé 295" class="cls-2" d="M159.5,46.34c0-3.07-.93-3.12-1.71-3.12a3.8,3.8,0,0,0-1.41.2v-.83c2.19-.64,4.49-1.37,6.73-2.2l.34.1v3.85c2.39-2.24,4.25-4,7.12-4,2.25,0,5.71,1.32,5.71,7.32V58.88c0,2.29.59,3,3,3.22v.73H169.11V62.1c1.8-.15,3.07-.39,3.07-4.1V47.8c0-3-.87-4.73-3.75-4.73-1.46,0-3,1-4.83,2.78v13.7c0,1.61.68,2.39,3.22,2.54v.73H156.48v-.73c2.29-.15,3-.78,3-3.66Z"/>
    <path id="Tracé_296" data-name="Tracé 296" class="cls-2" d="M198.52,53.12c0-6-2.49-11.36-7-11.36-3.08,0-5.76,2.53-5.76,7.61,0,3.61,1.12,12.58,7,12.58,2.48,0,5.75-1.85,5.75-8.83m4.39-1.41c0,4.83-3.41,11.61-10.83,11.61-6.29,0-10.68-5-10.68-11.61,0-6,4-11.32,10.54-11.32s11,4.25,11,11.32"/>
    <path id="Tracé_297" data-name="Tracé 297" class="cls-2" d="M128.35,31.53H127.2A1.88,1.88,0,0,1,125.47,33s-2.31-.36-3.39-.65c0,0-5.48-1.44-9.66-.5A15,15,0,0,0,99.81,44.15s-1.66,7.42,2.73,12.61c0,0,4.47,6.42,14.7,6.2,0,0,7.5-.07,11.9-3.17V53.23s-.07-2.6,3.46-2.6v-1H120.2v1s4.11-.14,4.18,2.38v6s-.8,1.74-6.92,2.1c0,0-6.13.21-9.73-4.69A16.83,16.83,0,0,1,105.2,47s-.64-13.05,11.54-13.62c0,0,7.42-.8,10.74,7.85h1.22Z"/>
    <path id="Tracé_298" data-name="Tracé 298" class="cls-3" d="M223.61,59.47H211.74c0-.19.07-.39.12-.58.11-.46.23-.93.36-1.39h11a.64.64,0,0,0,0-1.27H212.6c.21-.68.45-1.36.7-2h8.56a.63.63,0,0,0,.63-.63.64.64,0,0,0-.63-.63h-8.07a87.78,87.78,0,0,1,5.94-11.68c3.84-6.56,6.6-13.69,6.17-21.43-.39-6.85-3.84-14-7.75-19.54-.47-.66-1.57,0-1.1.64,4.23,6,7.66,13.5,7.62,20.92A26.61,26.61,0,0,1,224.3,26H212.78a.66.66,0,0,0,0,1.31h11.28c-.12.61-.26,1.21-.4,1.81H210.8a.62.62,0,0,0-.6.66.62.62,0,0,0,.6.6h12.53l-.07.27c-.16.59-.34,1.16-.54,1.72H211.5a.62.62,0,0,0,0,1.24h10.75q-.45,1.07-1,2.1h-6.58a.58.58,0,0,0-.56.61.57.57,0,0,0,.56.56h6c-.85,1.62-1.78,3.2-2.71,4.84-3.36,6-7.16,12.84-7.85,19.77s2.15,14.57,6.49,20c.51.64,1.4-.26.9-.9a28.06,28.06,0,0,1-6.19-16.69h10.61a.64.64,0,0,0,0-1.27H211.35c0-.63.09-1.27.17-1.9h12.09a.64.64,0,0,0,.61-.66.62.62,0,0,0-.61-.6"/>
    <path id="Tracé_299" data-name="Tracé 299" class="cls-1" d="M202.2,34.77c.18,2.17,1.36,9,13.1,12.95,18.95,6.43,10.56,16.35,5.79,18.64-2,1-3.53.86-3.58,1.76-.13,2.53,12.42-.11,15.14-8.94,1.6-5.22,1.7-13.9-13.28-18.39-5.32-1.59-14.81-6.69-10.78-13.26,1.73-2.82,4.77-3.72,6.77-4.29,1.41-.4,1.27-1,1.09-1.53-.57-1.85-15.3.29-14.26,13.06"/>
    <path id="Tracé_300" data-name="Tracé 300" class="cls-4" d="M346.89,91.69A4.66,4.66,0,0,1,345.37,90a5.72,5.72,0,0,1-.6-2.17,8.41,8.41,0,0,1,.29-2.87,16,16,0,0,1,1.12-3,19.72,19.72,0,0,1,1.72-2.86A17.73,17.73,0,0,1,350,76.66,11.89,11.89,0,0,1,352.15,75a4.46,4.46,0,0,1,2-.68,1.82,1.82,0,0,1,1.06.08,3.18,3.18,0,0,1,1,.58,3.38,3.38,0,0,1,.73.87,2.12,2.12,0,0,1,.33.94,1.35,1.35,0,0,1-.15.79,1.29,1.29,0,0,1-.68.56l0,0a.68.68,0,0,1-.28.07.61.61,0,0,1-.3,0,.75.75,0,0,1-.25-.13.29.29,0,0,1-.11-.21L355.41,76l-.19,0L355,76a.2.2,0,0,0-.11,0,8.39,8.39,0,0,0-3.61,1.87,10.25,10.25,0,0,0-2.38,3.16A31.71,31.71,0,0,0,347,85.75a8.28,8.28,0,0,0-.47,2.83,1.35,1.35,0,0,0,.38,1,1.25,1.25,0,0,0,.83.28,4.54,4.54,0,0,0,1.59-.35,13.57,13.57,0,0,0,1.84-.89A18,18,0,0,0,353,87.36,19.16,19.16,0,0,0,354.67,86a10.05,10.05,0,0,0,1.19-1.25,2.2,2.2,0,0,0,.52-.93,2.93,2.93,0,0,0-.59.11l-.55.15h0a7.1,7.1,0,0,1-.76.29l-1.16.41-1.13.38-.77.27a1,1,0,0,1-.56,0,1.22,1.22,0,0,1-.45-.24,1.12,1.12,0,0,1-.3-.41,1.63,1.63,0,0,1-.13-.48,1.06,1.06,0,0,1,.11-.58.65.65,0,0,1,.46-.34,6.34,6.34,0,0,0,.74-.23l1.37-.5,1.77-.63c.63-.23,1.26-.44,1.88-.64s1.21-.36,1.76-.49a7.37,7.37,0,0,1,1.4-.19,1.42,1.42,0,0,1,1.06.32c.2.21.2.57,0,1.07l-.79.86c-.24.26-.51.55-.79.87l-.85,1c-.27.31-.52.58-.74.82s-.39.42-.5.52v0c-.05.06-.21.2-.47.46l-.9.83-1,.91c-.35.3-.62.53-.83.69s-.56.51-1,.86-.86.7-1.31,1a9.89,9.89,0,0,1-1.52.86,3.82,3.82,0,0,1-1.55.36,2.52,2.52,0,0,1-.73-.1,2.36,2.36,0,0,1-.7-.33"/>
    <path id="Tracé_301" data-name="Tracé 301" class="cls-4" d="M366.54,81.29s-.05.1-.19.23l-.55.47-.74.61-.79.62-.69.51-.42.27a1.86,1.86,0,0,0,.7-.1,6.39,6.39,0,0,0,.83-.31,7.17,7.17,0,0,0,.86-.47,5.6,5.6,0,0,0,.74-.54,2.71,2.71,0,0,0,.53-.54.74.74,0,0,0,.17-.48s-.07-.06-.22-.1ZM362,90.21a2.59,2.59,0,0,1-1.51-1.1,3.8,3.8,0,0,1-.51-1.63,5.24,5.24,0,0,1,0-1,5.29,5.29,0,0,1,.15-1c.13-.14.27-.3.41-.48s.28-.35.41-.52c.4-.48.85-1,1.34-1.56s1-1.1,1.54-1.62a15.22,15.22,0,0,1,1.69-1.43,8.19,8.19,0,0,1,1.76-1,1,1,0,0,1,.67-.07.91.91,0,0,1,.49.35,2,2,0,0,1,.31.65,4.54,4.54,0,0,1,.14.82,5.64,5.64,0,0,1-.07,1.48c0,.23-.08.43-.13.61a1.23,1.23,0,0,1-.19.4,4,4,0,0,1-1,.78c-.47.28-1,.58-1.57.9s-.94.51-1.42.8-.92.56-1.31.83a6.24,6.24,0,0,0-1,.81,1,1,0,0,0-.34.71c0,.16.16.33.45.5l.22,0h.21a8.2,8.2,0,0,0,1.32-.11c.48-.08,1-.17,1.47-.29s1-.25,1.49-.4l1.41-.42,1-.27c.35-.08.64-.16.85-.23l.75.57a4.07,4.07,0,0,1-1.31,1.2,12.06,12.06,0,0,1-2,1,16.41,16.41,0,0,1-2.25.64,11.36,11.36,0,0,1-2.09.25c-.26,0-.52,0-.78,0a3.89,3.89,0,0,1-.68-.13"/>
    <path id="Tracé_302" data-name="Tracé 302" class="cls-4" d="M379.33,89.82a4.37,4.37,0,0,1-.06-1.14,8.47,8.47,0,0,1,.2-1.12,7.44,7.44,0,0,1,.36-1.1l.45-1.07c.25-.59.48-1.16.67-1.7a4,4,0,0,0,.22-1.6,2.54,2.54,0,0,0-.1-.55,2,2,0,0,0-1.26.33,8.93,8.93,0,0,0-1.5,1.08c-.53.45-1.06,1-1.6,1.52s-1.07,1.12-1.57,1.67-1,1.09-1.48,1.56a9.85,9.85,0,0,1-1.28,1.13,1.67,1.67,0,0,1-1,.4c-.29,0-.51-.22-.66-.64,0,0,.09-.22.25-.63s.39-.9.66-1.5l.87-1.95c.31-.7.61-1.36.9-2s.53-1.12.75-1.54a2.69,2.69,0,0,1,.43-.68,2.37,2.37,0,0,1,.7.64,1.39,1.39,0,0,1,.24.62,1.69,1.69,0,0,1,0,.55c0,.18-.09.36-.14.53l-.06.24-.06.23,1.41-1c.54-.38,1.1-.73,1.68-1.07a15.85,15.85,0,0,1,1.7-.85,4.22,4.22,0,0,1,1.48-.35A1.39,1.39,0,0,1,383,81.13a1,1,0,0,1,0,.25,4.62,4.62,0,0,1-.09,1.17,13.91,13.91,0,0,1-.46,1.68v0l-.11.3-.18.53c-.07.21-.15.43-.24.67s-.18.48-.26.72l-.44,1.21c-.15.39-.24.64-.27.74a.49.49,0,0,0,0,.12.57.57,0,0,0,0,.13.75.75,0,0,1,0,.15,5.58,5.58,0,0,1-.09.81,1.28,1.28,0,0,1-.32.71.39.39,0,0,1-.33.15.74.74,0,0,1-.35-.1,1.66,1.66,0,0,1-.3-.22.75.75,0,0,1-.16-.15Z"/>
    <path id="Tracé_303" data-name="Tracé 303" class="cls-4" d="M385.62,88.36a.69.69,0,0,0,.71.54,2.27,2.27,0,0,0,1-.3,8.14,8.14,0,0,0,1.17-.77,10.85,10.85,0,0,0,1.15-1.1,9.72,9.72,0,0,0,1-1.25,7.37,7.37,0,0,0,.66-1.28,2.49,2.49,0,0,0,.2-1.11.8.8,0,0,0-.35-.6,1.78,1.78,0,0,0-1.06-.23,4.77,4.77,0,0,0-.76.06c-.06.07-.13.13-.19.19l-.23.2c-.33.3-.69.66-1.1,1.06a15.58,15.58,0,0,0-1.15,1.29,7.45,7.45,0,0,0-.87,1.4,2.68,2.68,0,0,0-.29,1.39,2.3,2.3,0,0,0,.1.51m-.1,1.72a2.55,2.55,0,0,1-1.25-.92,2.61,2.61,0,0,1-.47-1.34,4.29,4.29,0,0,1,.16-1.47,8.88,8.88,0,0,1,.63-1.57,12,12,0,0,1,.94-1.52A12.41,12.41,0,0,1,386.62,82a6.71,6.71,0,0,1,1.12-1,2.41,2.41,0,0,1,1-.44l.44,0h.44a4.29,4.29,0,0,1,1.42.21,2.79,2.79,0,0,1,1,.58,2.39,2.39,0,0,1,.62.88,3.53,3.53,0,0,1,.26,1.11,4.86,4.86,0,0,1-.12,1.52,7.38,7.38,0,0,1-.57,1.57,8.54,8.54,0,0,1-.93,1.5,7.28,7.28,0,0,1-1.21,1.27,5.85,5.85,0,0,1-1.46.88,4.36,4.36,0,0,1-1.6.33,3.94,3.94,0,0,1-1.48-.29"/>
    <path id="Tracé_304" data-name="Tracé 304" class="cls-4" d="M408.88,90.1a.53.53,0,0,1-.44,0,1.86,1.86,0,0,1-.49-.24,2.59,2.59,0,0,1-.42-.32,1.26,1.26,0,0,1-.2-.2l.08.2a1.64,1.64,0,0,1-.32-.54,2.55,2.55,0,0,1-.13-.61,3.09,3.09,0,0,1,.11-1.09,8.22,8.22,0,0,1,.33-1c.07-.15.18-.43.33-.82s.32-.8.5-1.24l.51-1.22c.16-.39.27-.66.35-.81v-.11a4,4,0,0,0-1,.61q-.68.53-1.5,1.26c-.54.5-1.11,1-1.7,1.62s-1.15,1.12-1.65,1.64-.94,1-1.32,1.36-.61.66-.72.79c-.47.17-.8.14-1-.09a1.76,1.76,0,0,1-.37-1.08,5.79,5.79,0,0,1,0-1.1c0-.41.09-.84.17-1.27s.16-.85.24-1.25.16-.76.23-1.06a.58.58,0,0,0,0-.18.25.25,0,0,1,.05-.15,1.52,1.52,0,0,0-.72.38,6.62,6.62,0,0,0-.77.82c-.26.33-.52.69-.78,1.09s-.52.8-.77,1.21-.51.79-.76,1.16-.5.7-.73,1a4.21,4.21,0,0,1-.71.69,1.18,1.18,0,0,1-.7.26,1.22,1.22,0,0,1-.94-.56.72.72,0,0,1-.06-.29,1.33,1.33,0,0,1,0-.28l.29-.73.45-1.1.54-1.29c.2-.44.38-.87.56-1.28l.46-1.1c.14-.32.24-.56.3-.71h0c.1-.22.2-.44.32-.65s.3-.52.46-.77l.42-.62a1.05,1.05,0,0,1,.2-.27h.78a2.9,2.9,0,0,1,.23.76,2.44,2.44,0,0,1,0,.66,2.27,2.27,0,0,1-.2.57l-.27.5-.18.34-.16.32c.58-.55,1.09-1,1.53-1.4s.82-.71,1.15-1a6.09,6.09,0,0,1,.8-.52,1.47,1.47,0,0,1,.54-.16.68.68,0,0,1,.49.16.81.81,0,0,1,.2.45,2.66,2.66,0,0,1,0,.69c0,.27-.07.56-.13.87l0,0c-.05.42-.11.86-.16,1.33a6.46,6.46,0,0,0,0,1.39l0,.33.39-.34c.14-.13.29-.25.45-.38l.68-.55c.21-.18.35-.29.42-.36l.72-.59c.3-.25.6-.5.92-.75l.84-.67a4.21,4.21,0,0,1,.48-.35h0l.4-.31.66-.48.7-.48a4.83,4.83,0,0,1,.48-.3l0,0a1.55,1.55,0,0,1,.8-.26,1.07,1.07,0,0,1,.84.36,1.49,1.49,0,0,1,.38.92,1.29,1.29,0,0,1,0,.34c0,.11,0,.24,0,.39l-.3.64c-.1.21-.19.42-.28.63-.27.56-.52,1.12-.76,1.66s-.44,1.1-.62,1.66a11.77,11.77,0,0,0-.4,1.78,9.77,9.77,0,0,0-.06,1.95"/>
    <path id="Tracé_305" data-name="Tracé 305" class="cls-4" d="M415,78.68a.78.78,0,0,1,0-.22,1.37,1.37,0,0,1,0-.35c0-.13,0-.24,0-.35a.7.7,0,0,1,.05-.25,3.22,3.22,0,0,1,.44-.14,1.54,1.54,0,0,1,.3,0,1,1,0,0,1,.83.31,1.26,1.26,0,0,1,.29.74,1.3,1.3,0,0,1-.2.84.7.7,0,0,1-.62.4.87.87,0,0,1-.53-.2,1.89,1.89,0,0,1-.52-.7ZM411.86,89.5c.32-1.43.65-2.65,1-3.67a24.09,24.09,0,0,1,.92-2.5,7.87,7.87,0,0,1,.8-1.45c.23-.3.43-.46.59-.46s.33.21.4.63a5.84,5.84,0,0,1-.09,1.77,20.29,20.29,0,0,1-.7,2.76,27.11,27.11,0,0,1-1.48,3.57,1.25,1.25,0,0,1-.74.07.89.89,0,0,1-.64-.47Z"/>
    <path id="Tracé_306" data-name="Tracé 306" class="cls-4" d="M419.58,90.39a3,3,0,0,1-2.27-2.73,5,5,0,0,1,.24-1.89,11.06,11.06,0,0,1,.86-2,15.79,15.79,0,0,1,1.27-1.94,13.71,13.71,0,0,1,1.49-1.65,8,8,0,0,1,1.5-1.14,2.63,2.63,0,0,1,1.3-.42,1.33,1.33,0,0,1,.9.3,1.79,1.79,0,0,1,.55,1,2,2,0,0,1-.09,1.11A4.55,4.55,0,0,1,424,83a1.34,1.34,0,0,1-.78.36.79.79,0,0,1-.51-.2,1.23,1.23,0,0,1-.36-.66,4.17,4.17,0,0,1,.5-.93c.18-.24.36-.49.52-.74a1.06,1.06,0,0,0-.66.27,6.08,6.08,0,0,0-.9.86,14.17,14.17,0,0,0-1.85,2.74,9.46,9.46,0,0,0-.61,1.52,3.69,3.69,0,0,0-.17,1.36,1.62,1.62,0,0,0,.16.61,1.35,1.35,0,0,0,.4.49,5.5,5.5,0,0,0,1.45-.15,15.31,15.31,0,0,0,1.68-.47c.59-.19,1.17-.4,1.75-.64l1.67-.69h0c.73-.31,1.37-.56,1.91-.76a1.78,1.78,0,0,1,1.18-.14.47.47,0,0,1,.25.62.56.56,0,0,0-.05.08,3.27,3.27,0,0,1-.92,1,11.88,11.88,0,0,1-1.7,1.07,19.82,19.82,0,0,1-2.14,1,17.41,17.41,0,0,1-2.22.72,8.39,8.39,0,0,1-2,.29,3.24,3.24,0,0,1-1-.13"/>
    <path id="Tracé_307" data-name="Tracé 307" class="cls-4" d="M429.9,89.79a.61.61,0,0,1-.34-.49.88.88,0,0,1,.23-.57,3.53,3.53,0,0,1,.68-.6c.29-.2.61-.41,1-.61s.72-.4,1.11-.59l1.11-.55h0l1-.51c.28-.14.47-.25.57-.31.42-.44.63-.74.61-.9s-.1-.22-.27-.32a4,4,0,0,0-.69-.24c-.28-.07-.59-.13-.93-.19l-1-.16c-.4,0-.78-.11-1.16-.18a6.93,6.93,0,0,1-1-.26,2.32,2.32,0,0,1-.73-.38.75.75,0,0,1-.31-.57,1,1,0,0,1,.23-.67,3.55,3.55,0,0,1,.84-.8h0c.2-.15.5-.38.9-.66l1.3-.9c.47-.31.93-.6,1.4-.85a5,5,0,0,1,1.22-.5,1.06,1.06,0,0,1,.53,0,1.48,1.48,0,0,1,.5.21,1.41,1.41,0,0,1,.39.34.7.7,0,0,1,.18.39.77.77,0,0,1-.43.74l-.63.38-.64.35-1.76,1c-.56.33-1.05.64-1.49.94a23.74,23.74,0,0,1,2.66.42,8.9,8.9,0,0,1,1.79.58,3,3,0,0,1,1,.72,1.42,1.42,0,0,1,.36.82,1.67,1.67,0,0,1-.49,1.21,7.16,7.16,0,0,1-1.38,1.19,15,15,0,0,1-1.87,1.07c-.68.33-1.33.62-1.94.85a12.88,12.88,0,0,1-1.6.5c-.46.1-.74.11-.85,0Z"/>
    <path id="Tracé_308" data-name="Tracé 308" class="cls-4" d="M236.25,89.77a1.56,1.56,0,0,1,0-.48c0-.19,0-.4,0-.6a3.79,3.79,0,0,1,.09-.54q0-.24.06-.3c.67-2.13,1.34-4.27,2-6.42s1.37-4.29,2-6.42a1.35,1.35,0,0,1,.44-.73.31.31,0,0,1,.41.09,1.84,1.84,0,0,1,.32.66,4.21,4.21,0,0,1,.16.93,2.94,2.94,0,0,1,0,.42,1.17,1.17,0,0,1-.08.36c-.09.27-.19.53-.29.79s-.19.53-.28.81q-1.05,2.88-2,5.85a44,44,0,0,0-1.47,6.2,1.09,1.09,0,0,1-.55.21.75.75,0,0,1-.43-.13,1,1,0,0,1-.3-.33,1.71,1.71,0,0,1-.17-.39Z"/>
    <path id="Tracé_309" data-name="Tracé 309" class="cls-4" d="M249.09,90.68a3.91,3.91,0,0,1,0-1.08,6.27,6.27,0,0,1,.2-1,7.35,7.35,0,0,1,.35-1c.15-.34.29-.68.44-1,.25-.55.46-1.09.65-1.61a3.68,3.68,0,0,0,.23-1.51,3,3,0,0,0-.08-.51,1.94,1.94,0,0,0-1.2.31,8.37,8.37,0,0,0-1.42,1c-.5.42-1,.9-1.53,1.43s-1,1.06-1.5,1.58-1,1-1.41,1.47a11.16,11.16,0,0,1-1.22,1.06,1.52,1.52,0,0,1-.95.37c-.27,0-.47-.21-.61-.6,0,0,.08-.21.25-.59s.37-.85.63-1.41.54-1.17.84-1.84.6-1.28.88-1.86.52-1,.73-1.45a2.41,2.41,0,0,1,.41-.64,2.47,2.47,0,0,1,.65.6,1.12,1.12,0,0,1,.22.59,1.77,1.77,0,0,1-.05.51c0,.17-.09.34-.14.5l-.06.22-.06.22,1.34-.91c.52-.36,1-.69,1.6-1a14.18,14.18,0,0,1,1.61-.8,3.77,3.77,0,0,1,1.4-.33,1.26,1.26,0,0,1,1.4,1.13,1.13,1.13,0,0,1,0,.26,4.51,4.51,0,0,1-.1,1.1,11.1,11.1,0,0,1-.46,1.59l0,0-.11.29-.18.5c-.07.19-.14.4-.23.62s-.18.46-.26.68l-.43,1.14c-.14.37-.23.6-.26.7a.22.22,0,0,0,0,.11.25.25,0,0,0,0,.12.61.61,0,0,1,0,.14,5,5,0,0,1-.09.77,1.38,1.38,0,0,1-.31.67.43.43,0,0,1-.32.14.79.79,0,0,1-.33-.1l-.28-.2a.67.67,0,0,1-.14-.15Z"/>
    <path id="Tracé_310" data-name="Tracé 310" class="cls-4" d="M261.33,90.61a4.35,4.35,0,0,1,0-1.08,7.76,7.76,0,0,1,.2-1,9,9,0,0,1,.36-1c.14-.34.29-.68.44-1,.24-.55.46-1.09.65-1.6a3.73,3.73,0,0,0,.23-1.51,2.27,2.27,0,0,0-.09-.52,1.92,1.92,0,0,0-1.19.31,8.45,8.45,0,0,0-1.43,1,19.81,19.81,0,0,0-1.52,1.43c-.52.54-1,1.06-1.5,1.58s-1,1-1.42,1.47a8.84,8.84,0,0,1-1.22,1.06,1.57,1.57,0,0,1-1,.38c-.27,0-.47-.22-.61-.61,0,0,.08-.21.25-.59s.38-.85.63-1.41l.85-1.84c.3-.66.6-1.28.87-1.85s.52-1.06.73-1.45a3.11,3.11,0,0,1,.41-.65,2.37,2.37,0,0,1,.66.6,1.23,1.23,0,0,1,.21.59,1.45,1.45,0,0,1-.05.51c0,.18-.09.34-.14.5l-.06.23-.06.22,1.34-.92c.52-.36,1.05-.69,1.6-1a14.18,14.18,0,0,1,1.61-.8,3.82,3.82,0,0,1,1.4-.33,1.27,1.27,0,0,1,1.4,1.14,1,1,0,0,1,0,.25,4.14,4.14,0,0,1-.1,1.11,10.58,10.58,0,0,1-.45,1.58l0,0s-.06.14-.12.28-.11.31-.17.5l-.24.63c-.09.23-.18.45-.26.67l-.43,1.15c-.14.37-.23.6-.26.7a.2.2,0,0,0,0,.11.49.49,0,0,0,0,.12.71.71,0,0,1,0,.14,4.92,4.92,0,0,1-.09.76,1.19,1.19,0,0,1-.31.67.35.35,0,0,1-.31.14.64.64,0,0,1-.33-.1,1.1,1.1,0,0,1-.28-.2.67.67,0,0,1-.15-.14Z"/>
    <path id="Tracé_311" data-name="Tracé 311" class="cls-4" d="M267.69,88.72a.65.65,0,0,0,.66.52,2.27,2.27,0,0,0,1-.29,5.91,5.91,0,0,0,1.11-.73,8.94,8.94,0,0,0,1.1-1,8.85,8.85,0,0,0,.94-1.18,6.91,6.91,0,0,0,.64-1.2,2.37,2.37,0,0,0,.2-1,.73.73,0,0,0-.32-.57,1.73,1.73,0,0,0-1-.22c-.24,0-.48,0-.71.06l-.18.18c-.07.05-.14.12-.22.19-.31.29-.67.62-1.06,1a14,14,0,0,0-1.1,1.21,7,7,0,0,0-.84,1.32,2.62,2.62,0,0,0-.29,1.31,1.51,1.51,0,0,0,.08.48m-.11,1.62a2.36,2.36,0,0,1-1.17-.87,2.46,2.46,0,0,1-.42-1.26,3.82,3.82,0,0,1,.17-1.38,7.86,7.86,0,0,1,.61-1.47,12,12,0,0,1,.91-1.44,12.3,12.3,0,0,1,1.05-1.24,7.64,7.64,0,0,1,1.06-.9,2.5,2.5,0,0,1,.93-.41l.42,0h.41a4.07,4.07,0,0,1,1.34.2,2.77,2.77,0,0,1,.94.55,2.28,2.28,0,0,1,.57.83,3.4,3.4,0,0,1,.23,1,4.51,4.51,0,0,1-.13,1.42,7,7,0,0,1-.55,1.49,9.37,9.37,0,0,1-.9,1.41,8.3,8.3,0,0,1-1.17,1.2,5.36,5.36,0,0,1-1.38.82,4,4,0,0,1-1.52.31,3.75,3.75,0,0,1-1.4-.27"/>
    <path id="Tracé_312" data-name="Tracé 312" class="cls-4" d="M277.47,90a2,2,0,0,1-.88-1,5.35,5.35,0,0,1-.32-1.53q0-.6,0-1.2c0-.42.07-.83.11-1.23s.1-.78.17-1.14.11-.68.16-.95l0,0c0-.12,0-.26.06-.41s.05-.25.07-.33a.63.63,0,0,1,.5-.07,1.54,1.54,0,0,1,.45.21,5,5,0,0,1,.47.44c0,.14,0,.29.05.45s0,.29,0,.42c0,.39,0,.77,0,1.12s0,.71,0,1.07,0,.74,0,1.12,0,.74,0,1.11l0,.54c.09,0,.29-.08.6-.35s.67-.62,1.1-1.06.88-.95,1.37-1.5,1-1.1,1.44-1.65l1.19-1.34c.39-.44.76-.83,1.11-1.18a10.58,10.58,0,0,1,.93-.83,1.16,1.16,0,0,1,.65-.31.45.45,0,0,1,.5.32,2.09,2.09,0,0,1-.09,1.11,7.49,7.49,0,0,0-1,1.12c-.35.46-.73,1-1.12,1.52s-1,1.31-1.47,2a19.47,19.47,0,0,1-1.61,1.9,9.37,9.37,0,0,1-1.66,1.42,3,3,0,0,1-1.67.56,2.16,2.16,0,0,1-1.16-.32"/>
    <path id="Tracé_313" data-name="Tracé 313" class="cls-4" d="M287.33,89.31a.48.48,0,0,0,.48.33,2.55,2.55,0,0,0,1.08-.32,6.4,6.4,0,0,0,1.27-.85,10.85,10.85,0,0,0,2.38-2.84,7.82,7.82,0,0,0,.73-1.74,4.93,4.93,0,0,0,.19-1.79,2.3,2.3,0,0,0,0-.28,1.4,1.4,0,0,0-.06-.28.64.64,0,0,0-.28-.06,2.29,2.29,0,0,0-1.18.4A8,8,0,0,0,290.6,83a14.1,14.1,0,0,0-1.29,1.48,13.19,13.19,0,0,0-1.09,1.66,9.29,9.29,0,0,0-.74,1.6,3,3,0,0,0-.23,1.3.72.72,0,0,0,.08.32m6.05-1.17s-.06-.07-.06-.09v0s0,0,0,0a.31.31,0,0,0-.09-.07,2.13,2.13,0,0,0-.34.33l-.91.82a12.24,12.24,0,0,1-1.07.83,7.67,7.67,0,0,1-1.2.64,3.39,3.39,0,0,1-1.3.26,3.18,3.18,0,0,1-1.79-.58,1.7,1.7,0,0,1-.59-.66,2.31,2.31,0,0,1-.24-.89,4.73,4.73,0,0,1,.2-1.59,9.74,9.74,0,0,1,.74-1.8,11.66,11.66,0,0,1,1.16-1.79,10.73,10.73,0,0,1,1.45-1.56A7.67,7.67,0,0,1,291,80.84a3.8,3.8,0,0,1,1.68-.42,3.23,3.23,0,0,1,1.19.23,3.19,3.19,0,0,1,1.1.74,2.34,2.34,0,0,1,.55.73,2.51,2.51,0,0,1,.2.76,2.76,2.76,0,0,1-.13,1c-.1.35-.22.7-.35,1a10.7,10.7,0,0,0-.4,1.25,2.41,2.41,0,0,0,0,1.25.74.74,0,0,0,.61.62s0,0,0,0h.3a5,5,0,0,0,1.27-.23c.51-.16,1.05-.35,1.61-.57s1.1-.46,1.61-.72.94-.48,1.28-.68a1.92,1.92,0,0,1,1.23.07c.15.13.13.33-.06.58a4.15,4.15,0,0,1-1,.86,13.33,13.33,0,0,1-1.65.92,13.77,13.77,0,0,1-2,.75,8.26,8.26,0,0,1-2,.37,3.81,3.81,0,0,1-1.64-.24,1.71,1.71,0,0,1-1-1.07"/>
    <path id="Tracé_314" data-name="Tracé 314" class="cls-4" d="M301.32,90a1.2,1.2,0,0,1-.08-.42.76.76,0,0,1,.06-.37c0-.07,0-.13,0-.18.06-.24.13-.55.22-.94s.17-.79.25-1.18.17-.76.24-1.1.13-.59.17-.73a.06.06,0,0,0,0-.06.07.07,0,0,1,0,0,2.71,2.71,0,0,1,.09-.41,1,1,0,0,0,.06-.42,5,5,0,0,0-.66.11l-.59.13a3.36,3.36,0,0,1-.63.06,1.49,1.49,0,0,1-.77-.19,1.55,1.55,0,0,1-.6-.69,1.73,1.73,0,0,1,.38-.64,1.63,1.63,0,0,1,.54-.37,2.34,2.34,0,0,1,.62-.19l.68-.1a7.53,7.53,0,0,0,.95-.16,1.07,1.07,0,0,0,.67-.42c.06-.2.12-.41.2-.66s.13-.51.2-.79.21-.79.33-1.23.26-.87.4-1.31.28-.87.44-1.29a8.63,8.63,0,0,1,.51-1.17.55.55,0,0,1,.64-.1,1.2,1.2,0,0,1,.44.48,2.42,2.42,0,0,1,.25.68,1.89,1.89,0,0,1,.06.47h0a4.89,4.89,0,0,1-.25.85l-.37.94c-.17.43-.32.87-.47,1.31a3.56,3.56,0,0,0-.17,1.26c0,.1,0,.14,0,.12s0,0,0,.11l4.35,0a.44.44,0,0,1,.35.2l.26.35a.63.63,0,0,1,.07.58.72.72,0,0,1-.44.32,3.61,3.61,0,0,1-.8.13l-1,.05-1.11,0a7.67,7.67,0,0,0-1.06.13,3.12,3.12,0,0,0-.85.27.9.9,0,0,0-.47.47c-.31,1-.6,1.94-.85,2.92s-.5,1.94-.71,2.93a2.88,2.88,0,0,1-.26.35,1.58,1.58,0,0,1-.44.34.7.7,0,0,1-.49.06c-.17,0-.3-.21-.42-.5Z"/>
    <path id="Tracé_315" data-name="Tracé 315" class="cls-4" d="M312,79.53l-.06-.21c0-.11,0-.22,0-.33v-.33a.85.85,0,0,1,0-.23,3.17,3.17,0,0,1,.4-.14l.29,0a1,1,0,0,1,.8.29,1.31,1.31,0,0,1,.33.7,1.28,1.28,0,0,1-.14.79.59.59,0,0,1-.56.37.85.85,0,0,1-.51-.18,2.12,2.12,0,0,1-.53-.66Zm-2.27,10.18q.33-2,.69-3.45a19.41,19.41,0,0,1,.71-2.36,6.29,6.29,0,0,1,.65-1.36c.2-.29.38-.43.53-.43s.32.19.42.58a5.5,5.5,0,0,1,0,1.67,18.92,18.92,0,0,1-.49,2.6,23.56,23.56,0,0,1-1.17,3.37,1.19,1.19,0,0,1-.7.06.88.88,0,0,1-.62-.44Z"/>
    <path id="Tracé_316" data-name="Tracé 316" class="cls-4" d="M316.46,89.8a1.9,1.9,0,0,1-.88-1,5.35,5.35,0,0,1-.32-1.54,8,8,0,0,1,0-1.2c0-.42.06-.82.11-1.22s.1-.78.16-1.15.12-.68.16-1v0a3.55,3.55,0,0,1,.06-.4c0-.15.05-.26.07-.33a.58.58,0,0,1,.49-.08,1.5,1.5,0,0,1,.46.22,3.27,3.27,0,0,1,.47.44c0,.13,0,.28,0,.44s0,.3,0,.42c0,.4,0,.77,0,1.13s0,.71,0,1.07,0,.74,0,1.11,0,.75,0,1.12l0,.53c.09,0,.29-.08.6-.34s.67-.62,1.1-1.07.88-.94,1.37-1.5l1.44-1.64L323,82.51c.4-.44.77-.83,1.11-1.18a10.41,10.41,0,0,1,.93-.83,1.25,1.25,0,0,1,.65-.32.47.47,0,0,1,.5.33,2.1,2.1,0,0,1-.09,1.11,7.56,7.56,0,0,0-1,1.12c-.35.46-.72,1-1.12,1.52s-.95,1.31-1.47,2a19.37,19.37,0,0,1-1.6,1.9,10.21,10.21,0,0,1-1.66,1.42,3,3,0,0,1-1.67.56,2.17,2.17,0,0,1-1.16-.33"/>
    <path id="Tracé_317" data-name="Tracé 317" class="cls-4" d="M331.72,81.64s0,.09-.18.21l-.52.44-.71.58-.75.58-.66.48a3.42,3.42,0,0,1-.4.26,1.88,1.88,0,0,0,.66-.09c.27-.09.53-.19.79-.3a7.89,7.89,0,0,0,.81-.44,6.65,6.65,0,0,0,.71-.51,3.45,3.45,0,0,0,.5-.51.68.68,0,0,0,.17-.45s-.07-.06-.21-.09ZM327.3,90a2.35,2.35,0,0,1-1.4-1,3.58,3.58,0,0,1-.46-1.53,7.07,7.07,0,0,1,0-.92,4.83,4.83,0,0,1,.16-.91,4.51,4.51,0,0,0,.39-.45l.39-.49q.59-.69,1.29-1.47t1.47-1.53a17.29,17.29,0,0,1,1.6-1.35,8.25,8.25,0,0,1,1.68-1,1,1,0,0,1,.63-.06.82.82,0,0,1,.45.33,1.7,1.7,0,0,1,.28.61,4,4,0,0,1,.13.77c0,.24,0,.48,0,.71s-.05.46-.09.68a3.77,3.77,0,0,1-.14.58,1,1,0,0,1-.17.37,3.75,3.75,0,0,1-.95.74c-.45.26-.95.55-1.49.84s-.89.49-1.35.76-.88.53-1.25.78a6.58,6.58,0,0,0-.9.76,1,1,0,0,0-.34.67c0,.16.15.32.42.47a.68.68,0,0,0,.2,0h.2a8.78,8.78,0,0,0,1.25-.1c.44-.08.9-.17,1.38-.28s.94-.24,1.41-.37l1.33-.4c.3-.09.62-.17.95-.25s.6-.15.81-.22l.7.53a3.86,3.86,0,0,1-1.25,1.13,11.18,11.18,0,0,1-1.88.9,14.73,14.73,0,0,1-2.13.61,10.09,10.09,0,0,1-2,.23c-.24,0-.49,0-.73,0a2.8,2.8,0,0,1-.64-.13"/>
  </g>
</svg>
